<?xml version="1.0" standalone="no"?>
<!DOCTYPE svg PUBLIC "-//W3C//DTD SVG 20010904//EN"
 "http://www.w3.org/TR/2001/REC-SVG-20010904/DTD/svg10.dtd">
<svg version="1.0" xmlns="http://www.w3.org/2000/svg"
 width="274.000000pt" height="257.000000pt" viewBox="0 0 274.000000 257.000000"
 preserveAspectRatio="xMidYMid meet">

<g transform="translate(0.000000,257.000000) scale(0.100000,-0.100000)"
fill="#000000" stroke="none">
<path d="M0 1285 l0 -1285 1370 0 1370 0 0 1285 0 1285 -1370 0 -1370 0 0
-1285z m1681 591 c113 -24 191 -51 314 -110 122 -58 180 -96 302 -199 132
-111 204 -197 164 -197 -4 0 -52 44 -107 98 -259 254 -543 381 -894 399 -385
20 -730 -113 -1019 -392 -87 -85 -114 -106 -124 -96 -9 9 11 34 94 115 211
205 431 325 697 382 158 33 411 33 573 0z m-56 -111 c275 -40 496 -146 697
-334 47 -45 93 -81 101 -81 27 0 86 30 122 61 27 24 39 29 47 21 21 -21 -59
-85 -143 -114 -19 -6 -75 -51 -127 -99 -176 -168 -332 -254 -572 -314 -77 -19
-264 -45 -327 -45 -10 0 -13 -21 -13 -86 0 -77 -2 -88 -22 -105 -71 -61 -239
-116 -301 -98 -86 25 -113 106 -55 166 31 32 58 43 58 24 0 -5 -13 -19 -30
-31 -25 -18 -30 -28 -30 -61 0 -34 5 -42 33 -60 23 -15 43 -19 72 -15 53 7
169 57 213 91 34 28 34 28 30 97 -3 38 -7 71 -10 73 -2 2 -55 9 -118 15 -99 9
-278 44 -332 65 -14 5 -22 -10 -48 -92 -38 -118 -41 -179 -10 -222 12 -17 26
-31 31 -31 5 0 9 -7 9 -15 0 -19 -10 -19 -38 1 -60 42 -66 123 -22 274 17 56
30 103 28 104 -2 1 -32 15 -68 31 -65 31 -191 108 -245 152 -56 45 -185 177
-185 189 0 19 176 181 256 235 150 101 339 175 519 203 121 18 357 19 480 1z"/>
<path d="M1231 1729 c-293 -28 -528 -133 -731 -326 l-82 -78 65 -67 c36 -36
98 -90 139 -118 87 -61 245 -143 263 -136 7 2 35 46 61 96 26 50 54 96 61 102
20 17 29 0 13 -25 -29 -45 -90 -169 -90 -181 0 -40 247 -86 465 -86 380 0 683
117 914 353 l54 55 -23 31 c-25 36 -136 134 -201 178 -245 165 -561 236 -908
202z m254 -53 c72 -19 108 -40 165 -97 62 -62 86 -107 101 -193 28 -166 -54
-322 -209 -394 -80 -37 -194 -42 -274 -12 -67 25 -154 100 -191 163 -80 140
-55 320 61 436 97 97 220 131 347 97z"/>
<path d="M1272 1639 c-77 -30 -162 -117 -191 -194 -31 -82 -26 -197 11 -270
32 -61 103 -129 166 -158 67 -31 207 -31 274 0 61 28 143 110 171 171 33 72
31 198 -4 273 -56 120 -166 191 -299 196 -57 2 -88 -2 -128 -18z m198 -145
c93 -51 127 -152 81 -242 -24 -47 -46 -66 -99 -87 -143 -57 -287 95 -224 237
42 97 156 140 242 92z"/>
</g>
</svg>
